<?xml version="1.0" standalone="no"?>
<!DOCTYPE svg PUBLIC "-//W3C//DTD SVG 20010904//EN"
 "http://www.w3.org/TR/2001/REC-SVG-20010904/DTD/svg10.dtd">
<svg version="1.0" xmlns="http://www.w3.org/2000/svg"
 width="268.000000pt" height="299.000000pt" viewBox="0 0 268.000000 299.000000"
 preserveAspectRatio="xMidYMid meet">

<g transform="translate(0.000000,299.000000) scale(0.100000,-0.100000)"
fill="#000000" stroke="none">
<path d="M374 2629 c-3 -6 -1 -22 6 -35 11 -20 11 -27 -5 -44 -16 -18 -16 -20
-1 -26 9 -3 23 -1 31 6 13 10 19 9 35 -5 18 -16 20 -16 26 -1 3 9 1 23 -6 31
-10 12 -9 20 3 39 21 32 2 54 -26 28 -18 -16 -19 -16 -32 1 -14 20 -21 21 -31
6z"/>
<path d="M848 2611 c-11 -19 -14 -19 -30 -4 -10 9 -25 13 -34 9 -15 -6 -15 -9
6 -31 23 -24 23 -25 5 -45 -14 -16 -16 -23 -7 -32 9 -9 16 -8 29 4 14 15 18
15 39 1 22 -14 24 -14 30 1 4 9 -1 25 -10 34 -14 16 -14 21 -1 39 13 18 13 22
0 33 -11 9 -16 7 -27 -9z"/>
<path d="M1007 2602 c-37 -40 -9 -102 46 -102 28 0 57 32 57 62 0 25 -36 58
-63 58 -13 0 -31 -8 -40 -18z m63 -41 c0 -24 -25 -34 -40 -16 -15 18 -5 35 21
35 12 0 19 -7 19 -19z"/>
<path d="M581 2586 c-7 -8 -11 -30 -9 -48 6 -64 85 -73 109 -11 14 38 -11 73
-55 73 -18 0 -39 -6 -45 -14z m67 -39 c4 -20 -25 -34 -40 -19 -15 15 -1 44 19
40 10 -2 19 -11 21 -21z"/>
<path d="M914 2559 c-3 -6 3 -23 15 -37 12 -15 35 -44 51 -66 l29 -38 -6 -112
c-3 -61 -7 -112 -8 -114 -2 -2 -24 0 -48 3 l-46 7 -6 67 c-3 36 -7 81 -10 99
-5 42 9 33 34 -23 21 -47 51 -61 51 -25 0 31 -56 136 -82 154 -54 38 -115 5
-139 -73 -7 -22 -15 -41 -19 -41 -4 0 -13 14 -20 30 -23 56 -49 80 -85 80 -28
0 -41 8 -72 45 -36 44 -63 58 -63 32 0 -7 18 -36 40 -66 38 -51 40 -56 40
-126 0 -96 -5 -110 -33 -90 -27 19 -37 19 -37 1 0 -8 12 -24 28 -35 l27 -20
-37 -1 -38 0 0 101 c0 107 11 123 31 43 13 -51 39 -61 39 -14 0 38 -24 98 -52
127 -32 34 -111 33 -134 -2 -21 -32 -29 -32 -44 5 -13 33 -40 41 -40 13 0 -24
36 -82 56 -90 8 -3 21 2 29 13 13 17 14 14 15 -36 0 -30 -3 -78 -6 -107 l-7
-52 -41 -3 -41 -3 0 -725 0 -725 265 -3 c311 -3 395 7 506 62 85 43 169 123
212 205 134 251 135 723 1 958 -40 69 -110 137 -176 169 l-53 26 0 49 c0 57
16 73 31 31 6 -17 16 -33 23 -35 19 -8 86 43 86 65 0 23 -18 23 -42 1 -28 -25
-38 -3 -38 80 0 66 2 71 40 114 40 46 52 83 26 83 -8 0 -26 -15 -41 -32 -55
-65 -98 -66 -153 -4 -36 41 -49 49 -58 35z m-219 -219 c13 -29 24 -40 40 -40
18 0 25 9 34 45 23 92 39 39 25 -82 l-7 -53 -63 0 -64 0 0 91 c0 49 4 88 8 85
5 -3 17 -23 27 -46z m-255 -96 c0 -24 -4 -34 -12 -31 -7 2 -13 9 -12 15 1 7 2
24 3 38 2 38 21 18 21 -22z m420 0 c0 -24 -4 -34 -12 -32 -15 5 -22 42 -14 64
10 25 26 5 26 -32z m-240 1 c0 -22 -5 -35 -13 -35 -9 0 -12 11 -9 35 2 19 8
35 13 35 5 0 9 -16 9 -35z m201 -406 c51 -17 88 -57 105 -114 21 -67 30 -335
15 -435 -22 -142 -60 -183 -177 -188 l-74 -4 0 376 0 376 49 0 c26 0 63 -5 82
-11z"/>
<path d="M1422 1613 l3 -248 124 -3 c68 -1 128 1 133 6 5 5 11 32 15 60 l6 52
-72 0 -72 0 3 38 3 37 53 3 52 3 0 55 0 54 -55 0 c-54 0 -55 0 -55 30 l0 30
64 0 63 0 7 46 c12 91 23 84 -134 84 l-140 0 2 -247z"/>
<path d="M1720 1840 c0 -28 79 -459 86 -471 6 -11 184 -12 200 -1 6 4 28 108
49 232 20 124 39 233 41 243 5 15 -3 17 -70 17 -54 0 -76 -4 -76 -12 0 -7 -7
-74 -15 -148 -8 -74 -15 -141 -15 -149 0 -8 -2 -12 -5 -9 -4 4 -45 285 -45
309 0 5 -34 9 -75 9 -68 0 -75 -2 -75 -20z"/>
<path d="M2264 1750 c-49 -19 -67 -77 -40 -128 12 -24 129 -142 140 -142 14 0
121 111 137 142 26 51 24 75 -10 109 -35 34 -54 36 -100 8 -19 -11 -37 -16
-40 -11 -7 11 -46 32 -58 31 -4 0 -18 -4 -29 -9z"/>
<path d="M2294 1407 c-2 -7 -3 -118 -2 -247 l3 -235 68 -3 67 -3 0 251 0 250
-65 0 c-44 0 -67 -4 -71 -13z"/>
<path d="M2056 1365 c-3 -9 -6 -28 -6 -41 0 -17 -6 -24 -20 -24 -17 0 -20 -7
-20 -50 0 -38 4 -50 15 -50 12 0 15 -18 15 -100 0 -162 24 -191 148 -182 l52
4 2 39 c0 21 1 45 2 51 1 7 -12 15 -29 18 l-30 5 -3 83 -3 82 36 0 35 0 0 50
0 50 -34 0 c-33 0 -35 2 -38 38 l-3 37 -56 3 c-45 2 -58 0 -63 -13z"/>
<path d="M1495 1309 c-79 -19 -109 -75 -108 -201 2 -120 35 -172 124 -188 62
-11 130 5 161 39 71 79 57 283 -24 335 -31 20 -104 27 -153 15z m79 -125 c3
-9 6 -44 6 -79 0 -45 -4 -66 -16 -76 -14 -11 -18 -10 -30 6 -14 19 -19 102 -8
143 7 25 39 30 48 6z"/>
<path d="M1811 1307 c-49 -17 -76 -58 -76 -116 0 -62 22 -93 90 -126 86 -42
68 -55 -41 -29 -18 5 -22 0 -27 -33 -11 -64 -9 -71 22 -78 49 -11 146 -8 169
4 52 28 70 135 31 185 -12 15 -43 38 -70 51 -27 14 -49 28 -49 31 0 4 26 4 59
0 66 -8 71 -3 71 64 0 44 -4 46 -90 54 -33 4 -69 1 -89 -7z"/>
</g>
</svg>
